<svg preserveAspectRatio="none" overflow="visible" style="display: block;" width="47.5887" height="58.8139" viewBox="0 0 47.5887 58.8139" fill="none" xmlns="http://www.w3.org/2000/svg">
<g id="Vector">
<path d="M0 37V34.5686C4.17571 34.1986 5.07429 33.1414 5.07429 28.49V8.51C5.07429 3.7 4.07 2.74857 0 2.43143V0H18.0771C26.4814 0 32.5071 3.06572 32.5071 10.4129C32.5071 17.5486 26.6929 21.3014 17.8129 21.3014H13.3729V28.49C13.3729 33.6171 14.6414 34.41 19.8743 34.5686V37H0ZM13.3729 18.5529H16.28C21.0371 18.5529 23.6271 15.4343 23.6271 10.36C23.6271 5.49714 21.2486 2.69571 16.3857 2.69571H13.3729V18.5529Z" fill="white"/>
<path d="M34.0402 58.8139C24.6089 58.8139 18.05 51.9199 18.05 41.9141C18.05 30.9987 25.2312 23.6738 35.9552 23.6738C39.8809 23.6738 43.8066 24.5356 46.4397 25.9718V36.0734H44.1896C42.9449 30.472 39.833 27.5996 34.8541 27.5996C28.7261 27.5996 25.0876 31.7647 25.0876 38.8022C25.0876 46.7016 29.8751 52.1593 36.8648 52.1593C40.8384 52.1593 43.7588 50.5315 45.6737 47.1803L47.5887 48.1378C45.7695 54.9839 40.9341 58.8139 34.0402 58.8139Z" fill="white"/>
</g>
</svg>
