<svg preserveAspectRatio="none" overflow="visible" style="display: block;" width="21.6788" height="21.7492" viewBox="0 0 21.6788 21.7492" fill="none" xmlns="http://www.w3.org/2000/svg">
<g id="ai-technology-spark--lightbulb-idea-bright-lighting-artificial-intelligence-ai">
<path id="Vector" d="M13.1603 12.4766C12.523 13.2015 11.7473 13.7977 10.8744 14.2277V16.704C10.8744 16.9229 10.7875 17.1328 10.6327 17.2875C10.4779 17.4424 10.2679 17.5294 10.049 17.5294H5.09664C4.87775 17.5294 4.6678 17.4424 4.513 17.2875C4.35821 17.1328 4.27124 16.9229 4.27124 16.704V14.2277C3.08342 13.6384 2.075 12.7418 1.35066 11.6311C0.626335 10.5204 0.212508 9.23605 0.152146 7.91142C0.0917852 6.58677 0.387087 5.27013 1.00739 4.09815C1.62771 2.92619 2.55041 1.9416 3.67972 1.24665C4.80902 0.551691 6.10377 0.17168 7.42954 0.146069C8.53559 0.124702 9.62959 0.350652 10.6327 0.804044" stroke="white" stroke-width="0.288889" stroke-linecap="round" stroke-linejoin="round"/>
<path id="Vector_2" d="M4.27116 21.6047H10.8743" stroke="white" stroke-width="0.288889" stroke-linecap="round" stroke-linejoin="round"/>
<path id="Vector 2136" d="M11.4909 5.81319C10.9116 5.71241 10.9116 4.88077 11.4909 4.77999C13.5896 4.41487 15.2589 2.8163 15.7144 0.735299L15.7493 0.575784C15.8746 0.00323444 16.6899 -0.000329626 16.8202 0.571102L16.8626 0.756998C17.3351 2.82817 19.0047 4.41325 21.0977 4.77735C21.6799 4.87866 21.6799 5.71452 21.0977 5.81581C19.0047 6.17993 17.3351 7.765 16.8626 9.83617L16.8202 10.0221C16.6899 10.5935 15.8746 10.5899 15.7493 10.0174L15.7144 9.85788C15.2589 7.77689 13.5896 6.17831 11.4909 5.81319Z" stroke="white" stroke-width="0.288889" stroke-linecap="round" stroke-linejoin="round"/>
</g>
</svg>
